<?xml version="1.0" encoding="UTF-8" standalone="no"?>
<!-- Created with Inkscape (http://www.inkscape.org/) -->

<svg
   xmlns:dc="http://purl.org/dc/elements/1.1/"
   xmlns:cc="http://creativecommons.org/ns#"
   xmlns:rdf="http://www.w3.org/1999/02/22-rdf-syntax-ns#"
   xmlns:svg="http://www.w3.org/2000/svg"
   xmlns="http://www.w3.org/2000/svg"
   version="1.0"
   width="100%"
   height="100%"
   viewBox="0 0 1624 1632"
   id="svg2">
  <defs
     id="defs3037" />
  <path
     d="M 429.04147,-0.16275368 C 364.4066,7.2638905 295.68354,24.056024 248.24363,73.702643 c -22.65533,25.88421 -31.40895,70.969187 -6.70954,98.518807 19.80685,17.69143 45.76489,1.98546 65.48658,-7.46774 38.12795,-17.60252 81.51755,-25.03074 122.31417,-13.64146 56.03268,12.98952 109.76574,35.21492 161.78594,60.20616 55.08632,28.02377 102.17609,71.2102 138.63849,122.38789 64.25634,87.76567 106.94564,190.41742 140.46493,294.54098 17.23281,55.36594 30.86953,111.89751 42.48111,168.81429 -3.30272,7.32945 11.12893,24.58625 6.56758,8.13944 C 907.81274,708.48593 911.22903,610.65463 901.51013,513.821 890.30549,415.67361 861.28131,317.94109 805.49468,237.09987 737.26373,132.30462 637.05601,45.576144 517.7985,14.154359 488.74594,6.4042118 458.96469,1.7851797 429.04147,-0.16275368 z M 338.68514,196.89263 c -86.29656,2.93376 -177.30586,16.04181 -249.237009,69.8273 -33.11804,25.41597 -62.105316,58.06263 -80.4406124,96.60642 -5.7064177,21.96858 -10.7106522,48.10566 1.4762874,68.55303 17.628382,17.3062 44.632133,11.67575 65.556611,5.48227 44.195873,-17.26667 63.970553,-66.98242 102.554633,-92.56634 61.86211,-44.92496 139.55645,-59.96909 213.77773,-57.50949 54.94438,3.34864 111.00542,12.5055 160.71657,38.33637 45.07406,22.82796 79.92768,61.37175 114.09048,98.57214 78.71639,88.34846 136.07393,194.24018 187.56417,301.49505 3.73803,9.92734 9.17948,19.32128 8.51704,3.52642 C 862.59861,708.54124 849.3972,691.02762 848.02501,670.45183 817.64756,561.82393 771.5609,455.55685 697.73708,371.32751 631.18115,291.92847 541.66704,231.17903 441.65805,210.85019 407.8454,202.93794 373.3703,197.673 338.68703,196.89263 z m 1014.47416,33.20971 c -12.5863,39.2945 -5.8674,82.65875 -21.5764,121.10376 -21.7659,18.09643 -33.7843,-19.77567 -34.7306,-37.29917 -7.9493,-24.77392 -22.7121,-47.93773 -44.1941,-61.92492 -10.3149,-21.7809 -48.9256,-11.97207 -29.1472,12.58451 11.7347,28.23121 30.9453,55.67219 28.8633,87.7953 -4.2585,21.692 -30.4721,26.11732 -46.3705,15.51828 -29.6203,-15.51828 -52.9003,-41.10219 -81.0065,-59.18873 -12.2078,-7.33932 -24.9834,-16.65424 -38.9892,-18.22483 -19.6838,4.45496 -14.3843,32.08361 -2.3658,42.4851 21.1979,13.355 41.6389,29.55484 57.6321,49.71577 11.2613,14.01681 27.1598,40.954 4.2585,52.49146 -21.6712,12.76232 -35.1092,-13.11793 -52.7111,-21.18821 -20.6302,-12.11039 -42.8691,-21.40556 -63.4992,-33.17019 -9.5581,-6.79604 -23.7532,-26.36428 -33.68967,-19.63739 4.16394,27.59901 22.80677,49.42931 38.04277,71.17069 8.0438,13.93781 47.3169,25.09988 29.8096,43.22595 -19.0214,9.70016 -39.8407,-4.33643 -55.8339,-14.64901 -15.33072,-6.69726 -32.91369,-34.01969 -48.25379,-23.78613 -6.96504,21.61298 15.69028,40.03537 22.29577,59.23811 11.76291,18.36313 43.74922,17.46424 46.30432,41.73438 -1.4195,21.71175 -29.9989,25.48513 -44.46845,15.18243 -10.41917,-12.62403 -38.83772,-33.65421 -44.94161,-6.48982 1.42897,21.5537 28.16303,34.89881 21.20743,58.01324 -6.07548,16.52583 -23.70576,33.50605 -14.25183,52.24452 28.2482,34.52347 77.81746,40.1144 117.27966,25.99879 58.1998,-19.8942 102.8669,-67.55536 135.7994,-119.77024 22.6175,-30.00924 56.8749,-55.49438 95.0124,-52.42232 13.9111,-6.46019 35.677,22.72917 10.9776,20.48688 -31.1346,-0.97791 -64.7296,9.7199 -83.1833,37.4177 -24.2262,30.51302 -49.6826,61.17421 -62.8367,98.91788 -11.2614,29.75241 -22.1443,59.82092 -30.6614,90.4821 -4.4477,20.99065 0.095,42.55424 7.1922,62.18174 4.5425,37.00284 -14.3843,71.84239 -11.7346,108.86498 -2.3658,62.03356 18.7376,123.95855 56.2125,171.86655 23.3745,32.4985 54.2252,65.5897 54.2252,108.8551 -1.325,48.2045 -37.3805,94.2357 -83.3724,102.3357 -44.2887,3.6549 -84.2241,-23.4108 -116.4942,-52.0568 -42.30138,-40.0058 -73.48316,-92.1614 -92.79791,-148.0706 C 927.0234,1062.35 934.84014,1009.3053 923.52195,958.91785 907.22601,870.61877 864.78275,787.64393 802.24874,725.61035 743.17834,661.25546 676.49937,598.807 593.19326,572.27481 485.50947,538.3045 363.71578,566.18011 276.65269,639.62273 c -52.39872,42.6629 -96.92392,98.41409 -119.74014,164.14204 -11.7062,38.60305 1.1924,88.07186 38.69577,105.41756 32.53509,15.21206 69.66939,7.19116 102.57355,-2.41022 27.46273,-8.84077 48.7648,-30.4735 63.88728,-55.29681 26.78136,-40.875 48.78372,-88.40773 90.99038,-114.71273 64.7579,-42.87034 147.77066,-42.14925 218.80279,-18.06679 26.09999,8.04066 52.20946,17.24691 75.53668,32.17252 17.48833,10.6583 35.01451,22.28467 44.97944,41.89241 -24.548,-15.39973 -72.4327,-20.24981 -79.24633,-22.46246 -18.93622,-4.54388 -38.93234,-1.55085 -58.22817,-0.37538 -80.1832,8.26785 -160.94369,44.79655 -211.44027,112.15434 -14.77234,20.66469 -30.81276,47.25616 -21.29261,73.88713 11.62103,34.58271 57.9632,46.92036 86.22085,27.32244 18.47251,-12.44623 16.41896,-37.68442 20.10969,-57.549 9.47283,-57.3613 49.39883,-111.17642 104.45676,-126.61566 53.33561,-12.60427 111.08114,-7.34921 160.21501,18.43227 12.52951,16.11095 36.04601,-16.08132 44.6293,10.46075 16.37164,23.4009 27.92642,50.13065 39.16891,76.48504 27.11258,70.54838 32.94203,147.77432 29.11883,223.04432 0.71921,96.4088 29.45003,196.3738 94.74739,266.8037 53.6573,56.2055 131.1624,81.6906 206.1123,79.9126 51.6701,0.6914 103.3402,-6.717 153.023,-21.435 18.2642,-0.988 41.7334,-32.4987 56.0232,-12.0512 -6.4353,17.6814 -28.674,23.0155 -42.7746,33.585 -65.5812,34.7704 -143.181,46.4264 -215.008,27.6582 -29.9042,-7.2108 -58.8622,-17.9778 -87.1577,-30.424 8.801,25.3864 36.434,32.696 54.9823,48.2044 56.0232,33.091 123.5917,40.796 186.1446,27.2631 48.1686,-7.5073 97.3781,-19.6571 137.5976,-49.7848 12.3969,-15.6072 53.468,-3.0622 31.9862,16.8911 -8.8957,6.1245 -19.6839,19.0646 -1.4195,17.2866 20.2516,2.5682 43.4369,-7.9024 48.7364,-30.029 1.4195,-20.6449 29.6203,-28.3498 27.3491,-2.667 -1.5141,27.9546 -27.1599,44.747 -49.2096,55.1191 -15.7091,7.0131 -32.5541,10.5692 -49.0203,15.2119 10.6936,18.8668 35.5824,15.4096 53.6575,16.3975 58.1996,-3.4574 113.1819,-56.1068 112.898,-118.5356 -2.5551,-36.8448 -37.0018,-61.5396 -69.6505,-66.0836 -36.4339,-7.0132 -74.2874,2.5685 -105.5166,22.6207 -8.4225,6.0254 -26.9707,12.7424 -17.602,-4.7415 18.0752,-15.4096 37.1911,-29.5351 51.9541,-49.0934 45.3295,-54.5264 59.7139,-129.4012 58.1051,-199.8312 -2.2712,-71.2201 -20.8194,-141.3535 -49.4935,-205.78747 -20.3463,-11.75477 -10.1257,-44.72739 10.1258,-49.85405 23.9424,-19.01507 25.7404,-54.57572 20.8195,-83.13289 -7.9492,-45.083 -41.6388,-82.04633 -82.3315,-97.35716 -14.5736,-7.02323 -33.595,-12.58452 -39.7461,-29.74254 -3.9746,-29.07083 31.4183,-49.45892 55.2661,-38.33635 12.4916,16.28876 40.2194,4.95873 28.3902,-16.42706 -15.804,-12.03134 -34.2575,-22.34392 -52.1433,-32.10335 -17.6019,-19.65714 -37.191,17.09873 -56.4963,-2.56827 -12.2077,-15.88376 9.8419,-27.88549 10.1258,-43.78898 9.6526,-20.60543 40.5033,2.70655 57.2534,-10.8954 18.3589,-6.16385 48.9257,-30.40435 33.5004,-51.70123 -14.3844,-5.95642 -25.2672,-22.85759 -7.4762,-32.89361 17.2235,-15.58741 8.328,-40.38109 -14.2896,-37.74368 -23.3745,-12.86109 -8.6116,-42.55423 -8.2331,-63.34734 5.4887,-14.67865 -4.2586,-43.2062 -20.3463,-22.96626 -9.3687,13.83902 -30.9452,50.97027 -45.4242,22.69955 -0.6625,-22.01797 -2.839,-43.40374 -9.4634,-64.56234 -6.1511,-24.26025 -9.1795,-49.44905 -15.8984,-73.47225 l -1.4196,-2.93375 -1.6088,-2.80533 z M 378.6206,358.1997 c -93.59282,3.50668 -183.79775,47.73029 -250.93096,114.97943 -48.257549,51.2271 -80.646909,121.85449 -79.150749,194.497 5.861617,38.05978 54.815669,53.80523 83.320319,32.22189 27.68417,-19.21262 33.46629,-55.90923 52.04291,-82.58959 43.75866,-71.9807 117.33643,-127.32689 200.14099,-134.35012 67.32249,-6.64787 135.14652,7.02323 199.09057,28.36949 67.19944,24.09234 128.4559,64.98708 178.9241,117.05381 20.26109,10.846 -1.29647,-15.25156 -5.51716,-22.41308 C 705.73175,529.64153 643.32077,459.25121 564.40565,414.32626 508.41084,379.65461 444.13556,357.72555 378.6206,358.1997 z m 359.44751,480.73059 c -47.38313,0.60255 -89.76961,33.66409 -111.55431,76.29735 -20.83835,36.17309 -30.91686,79.65588 -25.43756,121.63716 10.32454,22.9169 39.12162,23.4108 59.31645,17.0889 19.38101,-5.2354 17.35586,-30.5229 10.19208,-45.5374 -14.14776,-23.66759 -4.00302,-53.15329 7.32465,-75.76394 14.02472,-31.53044 43.45582,-60.70006 78.90565,-57.54898 32.043,4.07959 54.82135,30.12777 78.688,50.11088 10.10688,-19.4991 -16.38112,-34.80993 -24.40606,-50.61467 -18.83213,-20.79309 -45.01729,-36.15332 -73.0289,-35.6693 z m 27.5479,82.53035 c -27.39648,1.00755 -53.20312,21.1487 -61.86211,48.29333 -0.16087,21.38581 24.01806,30.16719 41.13731,26.11738 29.53521,-10.42131 64.89986,-13.93786 92.3058,4.64255 19.14442,11.4584 23.55434,34.9679 34.9388,52.6496 13.67457,12.0511 -0.45425,-17.6817 -3.23648,-24.2998 -18.61446,-46.72277 -50.03289,-96.43853 -100.81338,-107.28453 l -2.46994,-0.11853 z m 167.42611,546.18196 c -1.16401,59.6628 32.44992,123.1782 88.93688,141.7486 32.3647,9.9768 69.0826,8.4952 99.3654,-7.606 21.2927,-16.101 12.5863,-48.896 -6.1511,-63.1202 -23.28,-22.1264 -54.793,-32.4984 -85.1705,-38.2276 -14.0057,5.0378 12.8702,17.9779 17.5073,24.0034 20.3462,14.0267 7.4761,53.3409 -17.8858,44.3521 -20.8194,-6.7171 -37.00183,-23.5096 -53.31674,-38.0301 -17.98984,-18.0768 -30.94521,-41.0924 -43.28544,-63.1202 z"
     id="selection_to_path"
     style="fill:#dc3d24;fill-opacity:1;stroke:#dc3d24;stroke-width:1.0645926;stroke-opacity:1" />
  <metadata
     id="metadata3033">
    <rdf:RDF>
      <cc:Work>
        <dc:format>image/svg+xml</dc:format>
        <dc:type
           rdf:resource="http://purl.org/dc/dcmitype/StillImage" />
        <cc:license
           rdf:resource="http://creativecommons.org/licenses/publicdomain/" />
        <dc:publisher>
          <cc:Agent
             rdf:about="http://openclipart.org/">
            <dc:title>Openclipart</dc:title>
          </cc:Agent>
        </dc:publisher>
        <dc:title></dc:title>
      </cc:Work>
      <cc:License
         rdf:about="http://creativecommons.org/licenses/publicdomain/">
        <cc:permits
           rdf:resource="http://creativecommons.org/ns#Reproduction" />
        <cc:permits
           rdf:resource="http://creativecommons.org/ns#Distribution" />
        <cc:permits
           rdf:resource="http://creativecommons.org/ns#DerivativeWorks" />
      </cc:License>
    </rdf:RDF>
  </metadata>
</svg>
